# xmcd
#
# Track frame offsets: 
#        150
#        8247
#        21832
#        32159
#        38570
#        47212
#        60302
#        78705
#        87112
#        97628
#        114990
#        129150
#        146028
#        154706
#        165359
#        173912
#        188843
#        196820
#        211043
#        221807
#        237985
#        257137
#        269875
#        284882
#        303292
#        312292
#        320886
#        328988
#        344097
#        344842
#        348583
#
# Disc length: 4717 seconds
#
# Revision: 0
# Processed by: cddbd v1.5.2PL0 Copyright (c) Steve Scherf et al.
# Submitted via: ExactAudioCopy v0.99pb5
#
DISCID=d5126b1f
DTITLE=Specii - Usile (vol.1)
DYEAR=2011
DGENRE=Hip-Hop
TTITLE0=Intro (live 08.11.2008)
TTITLE1=Special k house (feat. DJ Limun)
TTITLE2=Anticarul (Abreak ad habra)
TTITLE3=La portile Israelului
TTITLE4=Ispita
TTITLE5=V.I.P. (feat. Brio)
TTITLE6=Abdullah (feat. Aforic and Ursacian)
TTITLE7=Fauritorul de chei
TTITLE8=Propriul schelet
TTITLE9=Dia'gnoza
TTITLE10=Masina timpului
TTITLE11=Noi toti (feat. Ursacian and El Nino)
TTITLE12=Sin city
TTITLE13=Farmacia de la colt
TTITLE14=Numarul 1 (feat. DJ Limun)
TTITLE15=Succes (feat. Bean)
TTITLE16=Oscilay
TTITLE17=Big bang (feat. Raku)
TTITLE18=Boomba
TTITLE19=Vezi
TTITLE20=DORU
TTITLE21=La nebuni (feat. Ursacian)
TTITLE22=Sah (feat. Cedry2k and DJ Borak)
TTITLE23=Candy 2
TTITLE24=Outro
TTITLE25=Dubgonu (bonus track)
TTITLE26=Sesiune pe Mulatu (bonus track)
TTITLE27=Spiridusu (bonus track)
TTITLE28=E cam asa manca'
TTITLE29=Interludiu
TTITLE30=Serpii (live - bonus track)
EXTD=
EXTT0=
EXTT1=
EXTT2=
EXTT3=
EXTT4=
EXTT5=
EXTT6=
EXTT7=
EXTT8=
EXTT9=
EXTT10=
EXTT11=
EXTT12=
EXTT13=
EXTT14=
EXTT15=
EXTT16=
EXTT17=
EXTT18=
EXTT19=
EXTT20=
EXTT21=
EXTT22=
EXTT23=
EXTT24=
EXTT25=
EXTT26=
EXTT27=
EXTT28=
EXTT29=
EXTT30=
PLAYORDER=
